<svg width="25" height="25" viewBox="0 0 25 25" fill="none" xmlns="http://www.w3.org/2000/svg">
<g id="basket=hover" clip-path="url(#clip0_2_58)">
<path id="Vector" d="M22.7222 9L20.8241 20.1414C20.5899 21.5159 20.4728 22.2032 20.1672 22.7172C19.8976 23.1705 19.5265 23.5275 19.095 23.7489C18.6056 24 18.0086 24 16.8145 24H8.18542C6.99137 24 6.39434 24 5.90499 23.7489C5.47346 23.5275 5.10243 23.1705 4.83287 22.7172C4.52719 22.2032 4.41011 21.5159 4.17593 20.1414L2.27778 9M1 9H24M7.38889 13.5V13.515M17.6111 13.5V13.515M4.83333 9L8.66667 0M20.1667 9L16.3333 0" stroke="#E07A7A" stroke-width="3" stroke-linecap="round" stroke-linejoin="round"/>
</g>
<defs>
<clipPath id="clip0_2_58">
<rect width="25" height="25" fill="white"/>
</clipPath>
</defs>
</svg>
