<svg width="81" height="37" viewBox="0 0 81 37" fill="none" xmlns="http://www.w3.org/2000/svg">
<g id="logo=hover">
<path id="Vector" d="M0.00510396 18.9549C-0.318125 5.15356 14.7716 -4.53995 28.0158 3.0352C32.379 5.53077 36.0829 9.22683 40.0654 13.2636C40.2465 13.4471 40.3301 13.4282 40.4996 13.2577C46.7288 6.99017 55.7484 -2.56665 68.3821 1.1516C73.6989 2.71639 77.3934 6.15931 79.2862 11.3473C85.621 28.7104 67.4495 43.0858 51.8667 33.5564C47.9366 31.153 44.5424 27.8366 40.5304 23.7584C40.3163 23.5406 40.2197 23.5715 40.0239 23.7686C35.4658 28.3562 30.5595 33.3428 24.4993 35.4304C12.1672 39.6785 0.345117 32.3438 0.00510396 18.9549ZM7.72193 18.6873C8.1151 26.6596 14.2592 30.3761 20.8056 28.9628C26.4632 27.7415 31.2092 22.7752 35.2514 18.6278C35.3876 18.4881 35.3113 18.4313 35.2177 18.3441C31.7068 15.0732 28.2781 11.0777 23.9569 9.02155C15.582 5.03651 7.69375 10.8807 7.72193 18.6873ZM72.8415 18.3504C72.5926 10.6457 66.5026 6.44716 59.4849 8.09008C53.9634 9.38273 49.2451 14.3255 45.3251 18.3455C45.1891 18.485 45.2413 18.5501 45.3528 18.6539C50.254 23.2192 56.0378 30.4271 63.8522 29.1134C69.0574 28.2384 72.8531 23.7133 72.8415 18.3504Z" fill="#E07A7A"/>
</g>
</svg>
