<svg width="81" height="37" viewBox="0 0 81 37" xmlns="http://www.w3.org/2000/svg">
<g id="logo=Default">
<path id="Vector" d="M0.00510396 18.6371C-0.318125 4.83583 14.7716 -4.85768 28.0158 2.71747C32.379 5.21304 36.0829 8.9091 40.0654 12.9458C40.2465 13.1294 40.3301 13.1104 40.4996 12.9399C46.7288 6.67243 55.7484 -2.88438 68.3821 0.833871C73.6989 2.39866 77.3934 5.84157 79.2862 11.0295C85.621 28.3927 67.4495 42.7681 51.8667 33.2387C47.9366 30.8352 44.5424 27.5188 40.5304 23.4406C40.3163 23.2229 40.2197 23.2537 40.0239 23.4508C35.4658 28.0384 30.5595 33.0251 24.4993 35.1127C12.1672 39.3607 0.345117 32.0261 0.00510396 18.6371ZM7.72193 18.3696C8.1151 26.3418 14.2592 30.0583 20.8056 28.6451C26.4632 27.4238 31.2092 22.4575 35.2514 18.3101C35.3876 18.1703 35.3113 18.1136 35.2177 18.0264C31.7068 14.7555 28.2781 10.7599 23.9569 8.70382C15.582 4.71877 7.69375 10.563 7.72193 18.3696ZM72.8415 18.0326C72.5926 10.328 66.5026 6.12942 59.4849 7.77235C53.9634 9.065 49.2451 14.0078 45.3251 18.0278C45.1891 18.1672 45.2413 18.2324 45.3528 18.3362C50.254 22.9014 56.0378 30.1094 63.8522 28.7957C69.0574 27.9206 72.8531 23.3955 72.8415 18.0326Z"/>
</g>
</svg>
