<svg width="20" height="25" viewBox="0 0 20 25" fill="none" xmlns="http://www.w3.org/2000/svg">
<path id="Vector" d="M4.59475 1.23142C2.47088 2.45753 0.951504 4.43762 0.316819 6.80647C-0.318002 9.17532 0.00791044 11.6497 1.23402 13.7736C2.86943 16.606 5.9188 18.3656 9.19248 18.3656C10.2261 18.3656 11.2517 18.1877 12.224 17.8463L16.3542 25L19.2991 23.2997L15.1696 16.1472C16.5645 14.9537 17.5688 13.3708 18.0543 11.5591C18.6889 9.19028 18.363 6.71602 17.1369 4.59201C15.5016 1.7596 12.4521 0 9.1786 0C7.57516 0 5.99008 0.425753 4.59475 1.23142ZM14.192 6.2923C14.9641 7.62955 15.1692 9.18756 14.7696 10.6791C14.3699 12.1706 13.4133 13.4172 12.076 14.1893C11.1971 14.6968 10.1999 14.965 9.19248 14.965C7.12996 14.965 5.2089 13.857 4.17907 12.0733C3.407 10.736 3.20187 9.17817 3.60165 7.68654C4.00128 6.19505 4.95794 4.94839 6.29518 4.17619C7.17403 3.66882 8.17121 3.40058 9.1786 3.40058C11.2413 3.40058 13.1622 4.50863 14.192 6.2923Z" fill="black"/>
</svg>
